<mxfile host="app.diagrams.net" agent="Mozilla/5.0 (Windows NT 10.0; Win64; x64) AppleWebKit/537.36 (KHTML, like Gecko) Chrome/129.0.0.0 Safari/537.36 Edg/129.0.0.0" version="24.7.16">
  <diagram name="PÃ¡gina-1" id="Aj56r02QRUB-m-DAXe9O">
    <mxGraphModel dx="925" dy="495" grid="1" gridSize="10" guides="1" tooltips="1" connect="1" arrows="1" fold="1" page="1" pageScale="1" pageWidth="827" pageHeight="1169" math="0" shadow="0">
      <root>
        <mxCell id="0" />
        <mxCell id="1" parent="0" />
        <mxCell id="4DF3nojVsG-P_XL8GPun-1" value="" style="ellipse;whiteSpace=wrap;html=1;labelBackgroundColor=none;fillColor=#F694C1;strokeColor=#AF45ED;fontColor=#095C86;" vertex="1" parent="1">
          <mxGeometry x="90" y="30" width="160" height="60" as="geometry" />
        </mxCell>
        <mxCell id="4DF3nojVsG-P_XL8GPun-2" value="&#xa;&lt;h2 id=&quot;yui_3_17_2_1_1726962774121_44&quot; style=&quot;box-sizing: border-box; margin-top: 0px; margin-bottom: 0.5rem; font-family: -apple-system, BlinkMacSystemFont, &amp;quot;Segoe UI&amp;quot;, Roboto, &amp;quot;Helvetica Neue&amp;quot;, Arial, sans-serif, &amp;quot;Apple Color Emoji&amp;quot;, &amp;quot;Segoe UI Emoji&amp;quot;, &amp;quot;Segoe UI Symbol&amp;quot;; font-weight: 300; line-height: 1.2; color: rgb(55, 58, 60); font-size: 17px; font-style: normal; font-variant-ligatures: normal; font-variant-caps: normal; letter-spacing: normal; orphans: 2; text-indent: 0px; text-transform: none; widows: 2; word-spacing: 0px; -webkit-text-stroke-width: 0px; white-space: normal; text-decoration-thickness: initial; text-decoration-style: initial; text-decoration-color: initial;&quot;&gt;&lt;b id=&quot;yui_3_17_2_1_1726962774121_43&quot; style=&quot;box-sizing: border-box; font-weight: bolder; font-size: 17px;&quot;&gt;Black Goose Bistro&lt;/b&gt;&lt;/h2&gt;&#xa;&#xa;" style="text;html=1;align=center;verticalAlign=middle;whiteSpace=wrap;rounded=0;fontSize=17;labelBackgroundColor=none;fontColor=#095C86;" vertex="1" parent="1">
          <mxGeometry x="110" y="40" width="120" height="60" as="geometry" />
        </mxCell>
        <mxCell id="4DF3nojVsG-P_XL8GPun-3" value="" style="edgeStyle=segmentEdgeStyle;endArrow=classic;html=1;curved=0;rounded=0;endSize=8;startSize=8;labelBackgroundColor=none;strokeColor=#60E696;fontColor=default;" edge="1" parent="1">
          <mxGeometry width="50" height="50" relative="1" as="geometry">
            <mxPoint x="170" y="90" as="sourcePoint" />
            <mxPoint x="230" y="160" as="targetPoint" />
            <Array as="points">
              <mxPoint x="170" y="160" />
              <mxPoint x="230" y="160" />
            </Array>
          </mxGeometry>
        </mxCell>
        <mxCell id="4DF3nojVsG-P_XL8GPun-5" value="Actor" style="shape=umlActor;verticalLabelPosition=bottom;verticalAlign=top;html=1;outlineConnect=0;labelBackgroundColor=none;fillColor=#F694C1;strokeColor=#AF45ED;fontColor=#095C86;" vertex="1" parent="1">
          <mxGeometry x="240" y="140" width="30" height="60" as="geometry" />
        </mxCell>
        <mxCell id="4DF3nojVsG-P_XL8GPun-7" value="Actor" style="shape=umlActor;verticalLabelPosition=bottom;verticalAlign=top;html=1;outlineConnect=0;labelBackgroundColor=none;fillColor=#F694C1;strokeColor=#AF45ED;fontColor=#095C86;" vertex="1" parent="1">
          <mxGeometry x="240" y="490" width="30" height="60" as="geometry" />
        </mxCell>
        <mxCell id="4DF3nojVsG-P_XL8GPun-8" value="head" style="text;html=1;align=center;verticalAlign=middle;whiteSpace=wrap;rounded=0;fontColor=#095C86;fontSize=15;labelBackgroundColor=none;" vertex="1" parent="1">
          <mxGeometry x="230" y="110" width="60" height="30" as="geometry" />
        </mxCell>
        <mxCell id="4DF3nojVsG-P_XL8GPun-9" value="body" style="text;html=1;align=center;verticalAlign=middle;whiteSpace=wrap;rounded=0;fontColor=#095C86;fontSize=15;labelBackgroundColor=none;" vertex="1" parent="1">
          <mxGeometry x="225" y="455" width="60" height="30" as="geometry" />
        </mxCell>
        <mxCell id="4DF3nojVsG-P_XL8GPun-11" value="&lt;font style=&quot;font-size: 17px;&quot;&gt;meta&lt;/font&gt;" style="whiteSpace=wrap;html=1;rounded=1;arcSize=50;align=center;verticalAlign=middle;strokeWidth=1;autosize=1;spacing=4;treeFolding=1;treeMoving=1;newEdgeStyle={&quot;edgeStyle&quot;:&quot;entityRelationEdgeStyle&quot;,&quot;startArrow&quot;:&quot;none&quot;,&quot;endArrow&quot;:&quot;none&quot;,&quot;segment&quot;:10,&quot;curved&quot;:1,&quot;sourcePerimeterSpacing&quot;:0,&quot;targetPerimeterSpacing&quot;:0};strokeColor=#AF45ED;fontColor=#095C86;fillColor=#F694C1;labelBackgroundColor=none;" vertex="1" parent="1">
          <mxGeometry x="345" y="25" width="80" height="40" as="geometry" />
        </mxCell>
        <mxCell id="4DF3nojVsG-P_XL8GPun-12" value="" style="edgeStyle=entityRelationEdgeStyle;startArrow=none;endArrow=none;segment=10;curved=1;sourcePerimeterSpacing=0;targetPerimeterSpacing=0;rounded=0;strokeColor=#60E696;fontColor=default;fillColor=#F694C1;labelBackgroundColor=none;" edge="1" target="4DF3nojVsG-P_XL8GPun-11" parent="1">
          <mxGeometry relative="1" as="geometry">
            <mxPoint x="290" y="150" as="sourcePoint" />
            <Array as="points">
              <mxPoint x="290" y="140" />
            </Array>
          </mxGeometry>
        </mxCell>
        <mxCell id="4DF3nojVsG-P_XL8GPun-13" value="&lt;font style=&quot;font-size: 17px;&quot;&gt;meta&lt;/font&gt;" style="whiteSpace=wrap;html=1;rounded=1;arcSize=50;align=center;verticalAlign=middle;strokeWidth=1;autosize=1;spacing=4;treeFolding=1;treeMoving=1;newEdgeStyle={&quot;edgeStyle&quot;:&quot;entityRelationEdgeStyle&quot;,&quot;startArrow&quot;:&quot;none&quot;,&quot;endArrow&quot;:&quot;none&quot;,&quot;segment&quot;:10,&quot;curved&quot;:1,&quot;sourcePerimeterSpacing&quot;:0,&quot;targetPerimeterSpacing&quot;:0};strokeColor=#AF45ED;fontColor=#095C86;fillColor=#F694C1;labelBackgroundColor=none;" vertex="1" parent="1">
          <mxGeometry x="350" y="140" width="80" height="40" as="geometry" />
        </mxCell>
        <mxCell id="4DF3nojVsG-P_XL8GPun-14" value="" style="edgeStyle=entityRelationEdgeStyle;startArrow=none;endArrow=none;segment=10;curved=1;sourcePerimeterSpacing=0;targetPerimeterSpacing=0;rounded=0;strokeColor=#60E696;fontColor=default;fillColor=#F694C1;labelBackgroundColor=none;" edge="1" target="4DF3nojVsG-P_XL8GPun-13" parent="1">
          <mxGeometry relative="1" as="geometry">
            <mxPoint x="290" y="160" as="sourcePoint" />
            <Array as="points">
              <mxPoint x="290" y="180" />
            </Array>
          </mxGeometry>
        </mxCell>
        <mxCell id="4DF3nojVsG-P_XL8GPun-16" value="&lt;font style=&quot;font-size: 18px;&quot;&gt;tittle&lt;/font&gt;" style="whiteSpace=wrap;html=1;rounded=1;arcSize=50;align=center;verticalAlign=middle;strokeWidth=1;autosize=1;spacing=4;treeFolding=1;treeMoving=1;newEdgeStyle={&quot;edgeStyle&quot;:&quot;entityRelationEdgeStyle&quot;,&quot;startArrow&quot;:&quot;none&quot;,&quot;endArrow&quot;:&quot;none&quot;,&quot;segment&quot;:10,&quot;curved&quot;:1,&quot;sourcePerimeterSpacing&quot;:0,&quot;targetPerimeterSpacing&quot;:0};strokeColor=#AF45ED;fontColor=#095C86;fillColor=#F694C1;labelBackgroundColor=none;" vertex="1" parent="1">
          <mxGeometry x="350" y="260" width="80" height="40" as="geometry" />
        </mxCell>
        <mxCell id="4DF3nojVsG-P_XL8GPun-17" value="" style="edgeStyle=entityRelationEdgeStyle;startArrow=none;endArrow=none;segment=10;curved=1;sourcePerimeterSpacing=0;targetPerimeterSpacing=0;rounded=0;strokeColor=#60E696;fontColor=default;fillColor=#F694C1;entryX=0;entryY=0.5;entryDx=0;entryDy=0;labelBackgroundColor=none;" edge="1" parent="1" target="4DF3nojVsG-P_XL8GPun-16">
          <mxGeometry relative="1" as="geometry">
            <mxPoint x="289" y="170" as="sourcePoint" />
            <mxPoint x="319" y="290" as="targetPoint" />
            <Array as="points">
              <mxPoint x="279" y="230" />
              <mxPoint x="299" y="250" />
            </Array>
          </mxGeometry>
        </mxCell>
        <mxCell id="4DF3nojVsG-P_XL8GPun-18" value="&lt;font style=&quot;font-size: 18px;&quot;&gt;h1&lt;/font&gt;" style="whiteSpace=wrap;html=1;rounded=1;arcSize=50;align=center;verticalAlign=middle;strokeWidth=1;autosize=1;spacing=4;treeFolding=1;treeMoving=1;newEdgeStyle={&quot;edgeStyle&quot;:&quot;entityRelationEdgeStyle&quot;,&quot;startArrow&quot;:&quot;none&quot;,&quot;endArrow&quot;:&quot;none&quot;,&quot;segment&quot;:10,&quot;curved&quot;:1,&quot;sourcePerimeterSpacing&quot;:0,&quot;targetPerimeterSpacing&quot;:0};strokeColor=#AF45ED;fontColor=#095C86;fillColor=#F694C1;labelBackgroundColor=none;" vertex="1" parent="1">
          <mxGeometry x="365" y="390" width="60" height="40" as="geometry" />
        </mxCell>
        <mxCell id="4DF3nojVsG-P_XL8GPun-19" value="" style="edgeStyle=entityRelationEdgeStyle;startArrow=none;endArrow=none;segment=10;curved=1;sourcePerimeterSpacing=0;targetPerimeterSpacing=0;rounded=0;strokeColor=#60E696;fontColor=default;fillColor=#F694C1;labelBackgroundColor=none;" edge="1" target="4DF3nojVsG-P_XL8GPun-18" parent="1">
          <mxGeometry relative="1" as="geometry">
            <mxPoint x="290" y="510" as="sourcePoint" />
            <Array as="points">
              <mxPoint x="290" y="500" />
            </Array>
          </mxGeometry>
        </mxCell>
        <mxCell id="4DF3nojVsG-P_XL8GPun-20" value="&lt;font style=&quot;font-size: 18px;&quot;&gt;h2&lt;/font&gt;" style="whiteSpace=wrap;html=1;rounded=1;arcSize=50;align=center;verticalAlign=middle;strokeWidth=1;autosize=1;spacing=4;treeFolding=1;treeMoving=1;newEdgeStyle={&quot;edgeStyle&quot;:&quot;entityRelationEdgeStyle&quot;,&quot;startArrow&quot;:&quot;none&quot;,&quot;endArrow&quot;:&quot;none&quot;,&quot;segment&quot;:10,&quot;curved&quot;:1,&quot;sourcePerimeterSpacing&quot;:0,&quot;targetPerimeterSpacing&quot;:0};strokeColor=#AF45ED;fontColor=#095C86;fillColor=#F694C1;labelBackgroundColor=none;" vertex="1" parent="1">
          <mxGeometry x="365" y="500" width="60" height="40" as="geometry" />
        </mxCell>
        <mxCell id="4DF3nojVsG-P_XL8GPun-21" value="" style="edgeStyle=entityRelationEdgeStyle;startArrow=none;endArrow=none;segment=10;curved=1;sourcePerimeterSpacing=0;targetPerimeterSpacing=0;rounded=0;strokeColor=#60E696;fontColor=default;fillColor=#F694C1;labelBackgroundColor=none;" edge="1" target="4DF3nojVsG-P_XL8GPun-20" parent="1">
          <mxGeometry relative="1" as="geometry">
            <mxPoint x="290" y="520" as="sourcePoint" />
            <Array as="points">
              <mxPoint x="330" y="510" />
              <mxPoint x="320" y="520" />
              <mxPoint x="310" y="510" />
              <mxPoint x="310" y="510" />
              <mxPoint x="290" y="540" />
            </Array>
          </mxGeometry>
        </mxCell>
        <mxCell id="4DF3nojVsG-P_XL8GPun-23" value="" style="edgeStyle=entityRelationEdgeStyle;startArrow=none;endArrow=none;segment=10;curved=1;sourcePerimeterSpacing=0;targetPerimeterSpacing=0;rounded=0;strokeColor=#60E696;fontColor=default;fillColor=#F694C1;labelBackgroundColor=none;entryX=0;entryY=0.5;entryDx=0;entryDy=0;" edge="1" parent="1" target="4DF3nojVsG-P_XL8GPun-54">
          <mxGeometry relative="1" as="geometry">
            <mxPoint x="290" y="550" as="sourcePoint" />
            <mxPoint x="315" y="685" as="targetPoint" />
            <Array as="points">
              <mxPoint x="260" y="530" />
              <mxPoint x="280" y="550" />
            </Array>
          </mxGeometry>
        </mxCell>
        <mxCell id="4DF3nojVsG-P_XL8GPun-24" value="" style="edgeStyle=segmentEdgeStyle;endArrow=classic;html=1;curved=0;rounded=0;endSize=8;startSize=8;labelBackgroundColor=none;strokeColor=#60E696;fontColor=default;" edge="1" parent="1">
          <mxGeometry width="50" height="50" relative="1" as="geometry">
            <mxPoint x="170" y="150" as="sourcePoint" />
            <mxPoint x="230" y="520" as="targetPoint" />
            <Array as="points">
              <mxPoint x="170" y="520" />
              <mxPoint x="230" y="520" />
            </Array>
          </mxGeometry>
        </mxCell>
        <mxCell id="4DF3nojVsG-P_XL8GPun-26" value="&lt;font style=&quot;font-size: 15px;&quot;&gt;charse&lt;/font&gt;" style="endArrow=classic;html=1;rounded=0;fillColor=#F694C1;strokeColor=#60E696;labelBackgroundColor=none;fontColor=default;" edge="1" parent="1">
          <mxGeometry relative="1" as="geometry">
            <mxPoint x="430" y="40" as="sourcePoint" />
            <mxPoint x="590" y="40" as="targetPoint" />
          </mxGeometry>
        </mxCell>
        <mxCell id="4DF3nojVsG-P_XL8GPun-31" value="" style="whiteSpace=wrap;html=1;shape=mxgraph.basic.document;labelBackgroundColor=none;fillColor=#F694C1;strokeColor=#AF45ED;fontColor=#095C86;" vertex="1" parent="1">
          <mxGeometry x="600" width="190" height="100" as="geometry" />
        </mxCell>
        <mxCell id="4DF3nojVsG-P_XL8GPun-32" value="&lt;font style=&quot;font-size: 13px;&quot;&gt;&amp;nbsp;&amp;lt;meta charset=&quot;UTF-8&quot; /&amp;gt;&lt;/font&gt;&lt;div style=&quot;font-size: 13px;&quot;&gt;&lt;font style=&quot;font-size: 13px;&quot;&gt;se utiliza en el HTML para especificar la codificaciÃ³n de caracteres del documento&lt;/font&gt;&lt;br&gt;&lt;/div&gt;" style="text;html=1;align=center;verticalAlign=middle;whiteSpace=wrap;rounded=0;labelBackgroundColor=none;fontColor=#095C86;" vertex="1" parent="1">
          <mxGeometry x="615" y="25" width="160" height="60" as="geometry" />
        </mxCell>
        <mxCell id="4DF3nojVsG-P_XL8GPun-34" value="&lt;font style=&quot;font-size: 15px;&quot;&gt;viewport&lt;/font&gt;" style="endArrow=classic;html=1;rounded=0;fillColor=#F694C1;strokeColor=#60E696;fontSize=14;labelBackgroundColor=none;fontColor=default;" edge="1" parent="1">
          <mxGeometry x="-0.0667" relative="1" as="geometry">
            <mxPoint x="440" y="160" as="sourcePoint" />
            <mxPoint x="590" y="160" as="targetPoint" />
            <mxPoint x="1" as="offset" />
          </mxGeometry>
        </mxCell>
        <mxCell id="4DF3nojVsG-P_XL8GPun-36" value="&lt;font style=&quot;font-size: 13px;&quot;&gt;&amp;nbsp;&amp;lt;meta name=&quot;viewport&quot; content=&quot;width=device-width, initial-scale=1.0&quot; /&amp;gt;&lt;/font&gt;&lt;div style=&quot;font-size: 13px;&quot;&gt;&lt;font style=&quot;font-size: 13px;&quot;&gt;&amp;nbsp;es fundamental para el diseÃ±o responsivo de las pÃ¡ginas web&lt;/font&gt;&lt;br&gt;&lt;/div&gt;" style="whiteSpace=wrap;html=1;shape=mxgraph.basic.document;labelBackgroundColor=none;fillColor=#F694C1;strokeColor=#AF45ED;fontColor=#095C86;" vertex="1" parent="1">
          <mxGeometry x="600" y="120" width="190" height="100" as="geometry" />
        </mxCell>
        <mxCell id="4DF3nojVsG-P_XL8GPun-39" value="" style="endArrow=classic;html=1;rounded=0;labelBackgroundColor=none;strokeColor=#60E696;fontColor=default;" edge="1" parent="1">
          <mxGeometry width="50" height="50" relative="1" as="geometry">
            <mxPoint x="440" y="279.40999999999997" as="sourcePoint" />
            <mxPoint x="590" y="279" as="targetPoint" />
            <Array as="points">
              <mxPoint x="510" y="279.40999999999997" />
            </Array>
          </mxGeometry>
        </mxCell>
        <mxCell id="4DF3nojVsG-P_XL8GPun-40" value="&lt;div style=&quot;font-size: 14px;&quot;&gt;&lt;span style=&quot;font-size: 13px;&quot;&gt;&amp;nbsp;&lt;/span&gt;&lt;font style=&quot;font-size: 14px;&quot;&gt;&amp;lt;title&amp;gt;Black Goose Bistro&amp;lt;/title&amp;gt;&lt;/font&gt;&lt;/div&gt;&lt;div style=&quot;font-size: 14px;&quot;&gt;&lt;span style=&quot;background-color: initial;&quot;&gt;&lt;font style=&quot;font-size: 14px;&quot;&gt;define el tÃ­tulo de la pÃ¡gina web&lt;/font&gt;&lt;/span&gt;&lt;br&gt;&lt;/div&gt;" style="whiteSpace=wrap;html=1;shape=mxgraph.basic.document;labelBackgroundColor=none;fillColor=#F694C1;strokeColor=#AF45ED;fontColor=#095C86;" vertex="1" parent="1">
          <mxGeometry x="600" y="240" width="190" height="100" as="geometry" />
        </mxCell>
        <mxCell id="4DF3nojVsG-P_XL8GPun-43" value="" style="edgeStyle=entityRelationEdgeStyle;startArrow=none;endArrow=none;segment=10;curved=1;sourcePerimeterSpacing=0;targetPerimeterSpacing=0;rounded=0;strokeColor=#60E696;fontColor=default;fillColor=#F694C1;labelBackgroundColor=none;entryX=0;entryY=0.5;entryDx=0;entryDy=0;" edge="1" parent="1" target="4DF3nojVsG-P_XL8GPun-51">
          <mxGeometry relative="1" as="geometry">
            <mxPoint x="290" y="530" as="sourcePoint" />
            <mxPoint x="345" y="645" as="targetPoint" />
            <Array as="points">
              <mxPoint x="280" y="530" />
              <mxPoint x="235" y="660" />
              <mxPoint x="330" y="580" />
              <mxPoint x="360" y="640" />
            </Array>
          </mxGeometry>
        </mxCell>
        <mxCell id="4DF3nojVsG-P_XL8GPun-45" value="" style="endArrow=classic;html=1;rounded=0;labelBackgroundColor=none;strokeColor=#60E696;fontColor=default;" edge="1" parent="1">
          <mxGeometry width="50" height="50" relative="1" as="geometry">
            <mxPoint x="420" y="404" as="sourcePoint" />
            <mxPoint x="580" y="404.40999999999997" as="targetPoint" />
            <Array as="points">
              <mxPoint x="500" y="404.81999999999994" />
            </Array>
          </mxGeometry>
        </mxCell>
        <mxCell id="4DF3nojVsG-P_XL8GPun-46" value="&lt;div style=&quot;font-size: 13px;&quot;&gt;&lt;div&gt;&amp;nbsp;&amp;lt;h1&amp;gt;Black Goose Bistro&amp;lt;/h1&amp;gt;&lt;/div&gt;&lt;div&gt;se utiliza para definir el encabezado principal de la pÃ¡gina web&lt;br&gt;&lt;/div&gt;&lt;/div&gt;" style="whiteSpace=wrap;html=1;shape=mxgraph.basic.document;labelBackgroundColor=none;fillColor=#F694C1;strokeColor=#AF45ED;fontColor=#095C86;" vertex="1" parent="1">
          <mxGeometry x="600" y="360" width="190" height="100" as="geometry" />
        </mxCell>
        <mxCell id="4DF3nojVsG-P_XL8GPun-47" value="&lt;div style=&quot;&quot;&gt;&lt;div style=&quot;&quot;&gt;&lt;span style=&quot;font-size: 13px;&quot;&gt;&amp;lt;h2&amp;gt;El restaurante&amp;lt;/h2&amp;gt;&lt;/span&gt;&lt;br&gt;&lt;/div&gt;&lt;div style=&quot;font-size: 13px;&quot;&gt;secciÃ³n &quot;El restaurante&quot;, seguido de un pÃ¡rrafo (p) que describe el restaurante&lt;br&gt;&lt;/div&gt;&lt;/div&gt;" style="whiteSpace=wrap;html=1;shape=mxgraph.basic.document;labelBackgroundColor=none;fillColor=#F694C1;strokeColor=#AF45ED;fontColor=#095C86;" vertex="1" parent="1">
          <mxGeometry x="600" y="485" width="190" height="100" as="geometry" />
        </mxCell>
        <mxCell id="4DF3nojVsG-P_XL8GPun-48" value="&lt;span style=&quot;font-size: 15px;&quot;&gt;p&lt;/span&gt;" style="endArrow=classic;html=1;rounded=0;fillColor=#F694C1;strokeColor=#60E696;fontSize=14;labelBackgroundColor=none;fontColor=default;exitX=1;exitY=0.5;exitDx=0;exitDy=0;" edge="1" parent="1" source="4DF3nojVsG-P_XL8GPun-20">
          <mxGeometry x="-0.0667" relative="1" as="geometry">
            <mxPoint x="435" y="520" as="sourcePoint" />
            <mxPoint x="585" y="520" as="targetPoint" />
            <mxPoint x="1" as="offset" />
          </mxGeometry>
        </mxCell>
        <mxCell id="4DF3nojVsG-P_XL8GPun-49" value="&lt;div style=&quot;font-size: 13px;&quot;&gt;&lt;div style=&quot;&quot;&gt;&lt;span style=&quot;font-size: 13px;&quot;&gt;&amp;lt;h2&amp;gt;Catering&amp;lt;/h2&amp;gt;&lt;/span&gt;&lt;br&gt;&lt;/div&gt;&lt;div style=&quot;&quot;&gt;&amp;nbsp;secciÃ³n &quot;Catering&quot;, seguido de un pÃ¡rrafo (p) que describe los servicios de catering&lt;span style=&quot;font-size: 13px;&quot;&gt;&lt;br&gt;&lt;/span&gt;&lt;/div&gt;&lt;/div&gt;" style="whiteSpace=wrap;html=1;shape=mxgraph.basic.document;labelBackgroundColor=none;fillColor=#F694C1;strokeColor=#AF45ED;fontColor=#095C86;" vertex="1" parent="1">
          <mxGeometry x="600" y="610" width="190" height="100" as="geometry" />
        </mxCell>
        <mxCell id="4DF3nojVsG-P_XL8GPun-53" style="edgeStyle=entityRelationEdgeStyle;rounded=0;orthogonalLoop=1;jettySize=auto;html=1;startArrow=none;endArrow=none;segment=10;curved=1;sourcePerimeterSpacing=0;targetPerimeterSpacing=0;exitX=1;exitY=0.5;exitDx=0;exitDy=0;strokeColor=#60E696;fontColor=#095C86;fillColor=#F694C1;" edge="1" parent="1" source="4DF3nojVsG-P_XL8GPun-51">
          <mxGeometry relative="1" as="geometry">
            <mxPoint x="430" y="650" as="targetPoint" />
          </mxGeometry>
        </mxCell>
        <mxCell id="4DF3nojVsG-P_XL8GPun-51" value="&lt;font style=&quot;font-size: 18px;&quot;&gt;h2&lt;/font&gt;" style="whiteSpace=wrap;html=1;rounded=1;arcSize=50;align=center;verticalAlign=middle;strokeWidth=1;autosize=1;spacing=4;treeFolding=1;treeMoving=1;newEdgeStyle={&quot;edgeStyle&quot;:&quot;entityRelationEdgeStyle&quot;,&quot;startArrow&quot;:&quot;none&quot;,&quot;endArrow&quot;:&quot;none&quot;,&quot;segment&quot;:10,&quot;curved&quot;:1,&quot;sourcePerimeterSpacing&quot;:0,&quot;targetPerimeterSpacing&quot;:0};strokeColor=#AF45ED;fontColor=#095C86;fillColor=#F694C1;labelBackgroundColor=none;" vertex="1" parent="1">
          <mxGeometry x="365" y="630" width="60" height="40" as="geometry" />
        </mxCell>
        <mxCell id="4DF3nojVsG-P_XL8GPun-52" value="&lt;span style=&quot;font-size: 15px;&quot;&gt;p&lt;/span&gt;" style="endArrow=classic;html=1;rounded=0;fillColor=#F694C1;strokeColor=#60E696;fontSize=14;labelBackgroundColor=none;fontColor=default;" edge="1" parent="1">
          <mxGeometry x="-0.0667" relative="1" as="geometry">
            <mxPoint x="430" y="650" as="sourcePoint" />
            <mxPoint x="595" y="650" as="targetPoint" />
            <mxPoint x="1" as="offset" />
          </mxGeometry>
        </mxCell>
        <mxCell id="4DF3nojVsG-P_XL8GPun-54" value="&lt;font style=&quot;font-size: 18px;&quot;&gt;h2&lt;/font&gt;" style="whiteSpace=wrap;html=1;rounded=1;arcSize=50;align=center;verticalAlign=middle;strokeWidth=1;autosize=1;spacing=4;treeFolding=1;treeMoving=1;newEdgeStyle={&quot;edgeStyle&quot;:&quot;entityRelationEdgeStyle&quot;,&quot;startArrow&quot;:&quot;none&quot;,&quot;endArrow&quot;:&quot;none&quot;,&quot;segment&quot;:10,&quot;curved&quot;:1,&quot;sourcePerimeterSpacing&quot;:0,&quot;targetPerimeterSpacing&quot;:0};strokeColor=#AF45ED;fontColor=#095C86;fillColor=#F694C1;labelBackgroundColor=none;" vertex="1" parent="1">
          <mxGeometry x="365" y="750" width="60" height="40" as="geometry" />
        </mxCell>
        <mxCell id="4DF3nojVsG-P_XL8GPun-55" value="&lt;div style=&quot;font-size: 13px;&quot;&gt;&lt;div style=&quot;&quot;&gt;&lt;span style=&quot;&quot;&gt;&amp;nbsp;&amp;lt;h2&amp;gt;UbicaciÃ³n y Horario&amp;lt;/h2&amp;gt;&lt;/span&gt;&lt;br&gt;&lt;/div&gt;&lt;div style=&quot;&quot;&gt;&lt;span style=&quot;&quot;&gt;s&lt;/span&gt;&lt;span style=&quot;background-color: initial;&quot;&gt;ecciÃ³n &quot;UbicaciÃ³n y Horario&quot;, seguido de un pÃ¡rrafo (p) que detalla la ubicaciÃ³n y el horario de operaciÃ³n&lt;/span&gt;&lt;/div&gt;&lt;/div&gt;" style="whiteSpace=wrap;html=1;shape=mxgraph.basic.document;labelBackgroundColor=none;fillColor=#F694C1;strokeColor=#AF45ED;fontColor=#095C86;" vertex="1" parent="1">
          <mxGeometry x="600" y="730" width="190" height="100" as="geometry" />
        </mxCell>
        <mxCell id="4DF3nojVsG-P_XL8GPun-56" value="&lt;span style=&quot;font-size: 15px;&quot;&gt;p&lt;/span&gt;" style="endArrow=classic;html=1;rounded=0;fillColor=#F694C1;strokeColor=#60E696;fontSize=14;labelBackgroundColor=none;fontColor=default;" edge="1" parent="1">
          <mxGeometry x="-0.0667" relative="1" as="geometry">
            <mxPoint x="425" y="770" as="sourcePoint" />
            <mxPoint x="590" y="770" as="targetPoint" />
            <mxPoint x="1" as="offset" />
          </mxGeometry>
        </mxCell>
      </root>
    </mxGraphModel>
  </diagram>
</mxfile>
